{"title":"Man of Steel(2013)MPEG-4[DaScubaDude]","uid":14714927,"size":1564711591,"categoryP":"video","categoryS":"movies","magnet":"?xt=urn:btih:43612f6c7b9b5682e3703e789e5eb064cefb2fd4&amp;dn=Man+of+Steel%282013%29MPEG-4%5BDaScubaDude%5D&amp;tr=udp%3A%2F%2Ftracker.leechers-paradise.org%3A6969&amp;tr=udp%3A%2F%2Fzer0day.ch%3A1337&amp;tr=udp%3A%2F%2Fopen.demonii.com%3A1337&amp;tr=udp%3A%2F%2Ftracker.coppersurfer.tk%3A6969&amp;tr=udp%3A%2F%2Fexodus.desync.com%3A6969","seeders":0,"leechers":0,"uploader":"dascuba","files":1,"time":1464454465,"description":"Man of Steel (2013)\r\nPG-13 | 2h 23min | Action, Adventure, Fantasy | 14 June 2013 (USA)\r\nClark Kent, one of the last of an extinguished race disguised as an unremarkable human, is forced to reveal his identity when Earth is invaded by an army of survivors who threaten to bring the planet to the brink of destruction.\r\nDirector: Zack Snyder\r\nWriters: David S. Goyer (screenplay), David S. Goyer (story) |\r\nStars: Henry Cavill, Amy Adams, Michael Shannon |\r\n\r\nGeneral\r\nComplete name                            : ManofSteelMAN_OF_STEEL_Title1.mp4\r\nFormat                                   : MPEG-4\r\nFormat profile                           : Base Media\r\nCodec ID                                 : isom (isom/iso2/avc1/mp41)\r\nFile size                                : 1.46 GiB\r\nDuration                                 : 2h 22mn\r\nOverall bit rate                         : 1 460 Kbps\r\nMovie name                               : MAN_OF_STEEL\r\nGenre                                    : Fantasy\r\nWriting application                      : Lavf54.6.100\r\n\r\nVideo\r\nID                                       : 1\r\nFormat                                   : AVC\r\nFormat/Info                              : Advanced Video Codec\r\nFormat profile                           :   \r\nFormat settings, CABAC                   : No\r\nFormat settings, ReFrames                : 6 frames\r\nCodec ID                                 : avc1\r\nCodec ID/Info                            : Advanced Video Coding\r\nDuration                                 : 2h 22mn\r\nBit rate                                 : 1 202 Kbps\r\nWidth                                    : 720 pixels\r\nHeight                                   : 404 pixels\r\nDisplay aspect ratio                     : 16:9\r\nFrame rate mode                          : Constant\r\nFrame rate                               : 29.970 (30000/1001) fps\r\nColor space                              : YUV\r\nChroma subsampling                       : 4:2:0\r\nBit depth                                : 8 bits\r\nScan type                                : Progressive\r\nBits/(Pixel*Frame)                       : 0.138\r\nStream size                              : 1.20 GiB (82%)\r\n\r\nAudio\r\nID                                       : 2\r\nFormat                                   : AAC\r\nFormat/Info                              : Advanced Audio Codec\r\nFormat profile                           : LC\r\nCodec ID                                 : 40\r\nDuration                                 : 2h 22mn\r\nBit rate mode                            : Constant\r\nBit rate                                 : 251 Kbps\r\nChannel(s)                               : 2 channels\r\nChannel(s)_Original                      : 6 channels\r\nChannel positions                        : Front: L C R, Side: L R, LFE\r\nSampling rate                            : 44.1 KHz\r\nFrame rate                               : 43.066 fps (1024 spf)\r\nCompression mode                         : Lossy\r\nStream size                              : 257 MiB (17%)\r\nDefault                                  : Yes\r\nAlternate group                          : 1","torrent":{"xt":"urn:btih:43612f6c7b9b5682e3703e789e5eb064cefb2fd4","amp;dn":"Man+of+Steel%282013%29MPEG-4%5BDaScubaDude%5D","amp;tr":["udp%3A%2F%2Ftracker.leechers-paradise.org%3A6969","udp%3A%2F%2Fzer0day.ch%3A1337","udp%3A%2F%2Fopen.demonii.com%3A1337","udp%3A%2F%2Ftracker.coppersurfer.tk%3A6969","udp%3A%2F%2Fexodus.desync.com%3A6969"],"infoHash":"43612f6c7b9b5682e3703e789e5eb064cefb2fd4","infoHashBuffer":{"type":"Buffer","data":[67,97,47,108,123,155,86,130,227,112,62,120,158,94,176,100,206,251,47,212]},"announce":[],"urlList":[]}}